<svg width="40" height="34" viewBox="0 0 40 34" fill="none" xmlns="http://www.w3.org/2000/svg">
<path d="M3.63636 29.7273C2.63636 29.7273 1.78061 29.3715 1.06909 28.66C0.356364 27.9473 0 27.0909 0 26.0909V4.27273C0 3.27273 0.356364 2.41697 1.06909 1.70546C1.78061 0.992731 2.63636 0.636368 3.63636 0.636368H32.7273C33.7273 0.636368 34.5836 0.992731 35.2964 1.70546C36.0079 2.41697 36.3636 3.27273 36.3636 4.27273V15.1818H3.63636V26.0909H21.8182V29.7273H3.63636ZM3.63636 7.90909H32.7273V4.27273H3.63636V7.90909ZM30.9091 33.3636V27.9091H25.4545V24.2727H30.9091V18.8182H34.5455V24.2727H40V27.9091H34.5455V33.3636H30.9091Z" fill="#9E2140"/>
</svg>
