<svg width="40" height="42" viewBox="0 0 40 42" fill="none" xmlns="http://www.w3.org/2000/svg">
<path d="M5.45455 29.1818V16.4545H9.09091V29.1818H5.45455ZM16.3636 29.1818V16.4545H20V29.1818H16.3636ZM0 12.8182V9.18182L18.1818 0.0909119L36.3636 9.18182V12.8182H0ZM8.13636 9.18182H28.2273L18.1818 4.18182L8.13636 9.18182ZM0 36.4545V32.8182H21.9091C21.9697 33.4545 22.0455 34.0679 22.1364 34.6582C22.2273 35.2497 22.3636 35.8485 22.5455 36.4545H0ZM27.2727 22.3636V16.4545H30.9091V20.5455L27.2727 22.3636ZM32.7273 41.9091C30.6364 41.3939 28.9018 40.1891 27.5236 38.2945C26.1442 36.4012 25.4545 34.303 25.4545 32V27.3636L32.7273 23.7273L40 27.3636V32C40 34.303 39.3109 36.4012 37.9327 38.2945C36.5533 40.1891 34.8182 41.3939 32.7273 41.9091ZM31.4091 36.4545L37.7273 30.1818L35.8182 28.2727L31.4091 32.5909L29.6364 30.8182L27.7273 32.7727L31.4091 36.4545Z" fill="#9E2140"/>
</svg>
