<svg width="42" height="42" viewBox="0 0 42 42" fill="none" xmlns="http://www.w3.org/2000/svg">
<path d="M13.4998 31.4167L20.9998 23.9167L28.4998 31.4167L31.4165 28.5L23.9165 21L31.4165 13.5L28.4998 10.5834L20.9998 18.0834L13.4998 10.5834L10.5832 13.5L18.0832 21L10.5832 28.5L13.4998 31.4167ZM20.9998 41.8334C18.1179 41.8334 15.4096 41.2861 12.8748 40.1917C10.3401 39.0986 8.13525 37.6146 6.26025 35.7396C4.38525 33.8646 2.90123 31.6597 1.80817 29.125C0.713726 26.5903 0.166504 23.882 0.166504 21C0.166504 18.1181 0.713726 15.4097 1.80817 12.875C2.90123 10.3403 4.38525 8.13544 6.26025 6.26044C8.13525 4.38544 10.3401 2.90071 12.8748 1.80627C15.4096 0.713215 18.1179 0.166687 20.9998 0.166687C23.8818 0.166687 26.5901 0.713215 29.1248 1.80627C31.6596 2.90071 33.8644 4.38544 35.7394 6.26044C37.6144 8.13544 39.0984 10.3403 40.1915 12.875C41.2859 15.4097 41.8332 18.1181 41.8332 21C41.8332 23.882 41.2859 26.5903 40.1915 29.125C39.0984 31.6597 37.6144 33.8646 35.7394 35.7396C33.8644 37.6146 31.6596 39.0986 29.1248 40.1917C26.5901 41.2861 23.8818 41.8334 20.9998 41.8334ZM20.9998 37.6667C25.6526 37.6667 29.5936 36.0521 32.8228 32.8229C36.0519 29.5938 37.6665 25.6528 37.6665 21C37.6665 16.3472 36.0519 12.4063 32.8228 9.1771C29.5936 5.94794 25.6526 4.33335 20.9998 4.33335C16.3471 4.33335 12.4061 5.94794 9.17692 9.1771C5.94775 12.4063 4.33317 16.3472 4.33317 21C4.33317 25.6528 5.94775 29.5938 9.17692 32.8229C12.4061 36.0521 16.3471 37.6667 20.9998 37.6667Z" fill="#9E2140"/>
</svg>
