<svg width="31" height="38" viewBox="0 0 31 38" fill="none" xmlns="http://www.w3.org/2000/svg">
<path d="M8 30.25H23V26.5H8V30.25ZM8 22.75H23V19H8V22.75ZM4.25 37.75C3.21875 37.75 2.33625 37.3831 1.6025 36.6494C0.8675 35.9144 0.5 35.0312 0.5 34V4C0.5 2.96875 0.8675 2.08562 1.6025 1.35062C2.33625 0.616875 3.21875 0.25 4.25 0.25H19.25L30.5 11.5V34C30.5 35.0312 30.1331 35.9144 29.3994 36.6494C28.6644 37.3831 27.7812 37.75 26.75 37.75H4.25ZM17.375 13.375V4H4.25V34H26.75V13.375H17.375Z" fill="#9E2140"/>
</svg>
