<svg width="40" height="44" viewBox="0 0 40 44" fill="none" xmlns="http://www.w3.org/2000/svg">
<path d="M10 7.55555C9.07407 7.55555 8.28741 7.88 7.64 8.52889C6.99111 9.17629 6.66667 9.96296 6.66667 10.8889C6.66667 11.8148 6.99111 12.6015 7.64 13.2489C8.28741 13.8978 9.07407 14.2222 10 14.2222C10.9259 14.2222 11.7126 13.8978 12.36 13.2489C13.0089 12.6015 13.3333 11.8148 13.3333 10.8889C13.3333 9.96296 13.0089 9.17629 12.36 8.52889C11.7126 7.88 10.9259 7.55555 10 7.55555ZM10 29.7778C9.07407 29.7778 8.28741 30.1022 7.64 30.7511C6.99111 31.3985 6.66667 32.1852 6.66667 33.1111C6.66667 34.037 6.99111 34.8237 7.64 35.4711C8.28741 36.12 9.07407 36.4444 10 36.4444C10.9259 36.4444 11.7126 36.12 12.36 35.4711C13.0089 34.8237 13.3333 34.037 13.3333 33.1111C13.3333 32.1852 13.0089 31.3985 12.36 30.7511C11.7126 30.1022 10.9259 29.7778 10 29.7778ZM2.22222 0.888885H37.7778C38.4074 0.888885 38.9348 1.10148 39.36 1.52666C39.7867 1.95333 40 2.48148 40 3.11111V18.6667C40 19.2963 39.7867 19.8237 39.36 20.2489C38.9348 20.6756 38.4074 20.8889 37.7778 20.8889H2.22222C1.59259 20.8889 1.06519 20.6756 0.64 20.2489C0.213334 19.8237 0 19.2963 0 18.6667V3.11111C0 2.48148 0.213334 1.95333 0.64 1.52666C1.06519 1.10148 1.59259 0.888885 2.22222 0.888885ZM4.44444 5.33333V16.4444H35.5556V5.33333H4.44444ZM2.22222 23.1111H37.7778C38.4074 23.1111 38.9348 23.3237 39.36 23.7489C39.7867 24.1756 40 24.7037 40 25.3333V40.8889C40 41.5185 39.7867 42.0459 39.36 42.4711C38.9348 42.8978 38.4074 43.1111 37.7778 43.1111H2.22222C1.59259 43.1111 1.06519 42.8978 0.64 42.4711C0.213334 42.0459 0 41.5185 0 40.8889V25.3333C0 24.7037 0.213334 24.1756 0.64 23.7489C1.06519 23.3237 1.59259 23.1111 2.22222 23.1111ZM4.44444 27.5556V38.6667H35.5556V27.5556H4.44444Z" fill="#9E2140"/>
</svg>
