<svg width="40" height="20" viewBox="0 0 40 20" fill="none" xmlns="http://www.w3.org/2000/svg">
<path d="M0 20V17.375C0 16.1528 0.618333 15.1733 1.855 14.4367C3.09056 13.7011 4.69444 13.3333 6.66667 13.3333C7.02778 13.3333 7.375 13.34 7.70833 13.3533C8.04167 13.3678 8.36111 13.4028 8.66667 13.4583C8.27778 14.0139 7.98611 14.6111 7.79167 15.25C7.59722 15.8889 7.5 16.5694 7.5 17.2917V20H0ZM10 20V17.2917C10 15.4861 10.9239 14.0278 12.7717 12.9167C14.6183 11.8056 17.0278 11.25 20 11.25C23 11.25 25.4167 11.8056 27.25 12.9167C29.0833 14.0278 30 15.4861 30 17.2917V20H10ZM32.5 20V17.2917C32.5 16.5694 32.4094 15.8889 32.2283 15.25C32.0483 14.6111 31.7778 14.0139 31.4167 13.4583C31.7222 13.4028 32.035 13.3678 32.355 13.3533C32.6739 13.34 33 13.3333 33.3333 13.3333C35.3333 13.3333 36.9444 13.7011 38.1667 14.4367C39.3889 15.1733 40 16.1528 40 17.375V20H32.5ZM20 14.5833C18.4167 14.5833 17 14.7917 15.75 15.2083C14.5 15.625 13.7639 16.1111 13.5417 16.6667H26.5C26.25 16.1111 25.5067 15.625 24.27 15.2083C23.0344 14.7917 21.6111 14.5833 20 14.5833ZM6.66667 11.6667C5.75 11.6667 4.96556 11.34 4.31333 10.6867C3.66 10.0344 3.33333 9.25 3.33333 8.33333C3.33333 7.38889 3.66 6.59722 4.31333 5.95833C4.96556 5.31944 5.75 5 6.66667 5C7.61111 5 8.40278 5.31944 9.04167 5.95833C9.68056 6.59722 10 7.38889 10 8.33333C10 9.25 9.68056 10.0344 9.04167 10.6867C8.40278 11.34 7.61111 11.6667 6.66667 11.6667ZM33.3333 11.6667C32.4167 11.6667 31.6317 11.34 30.9783 10.6867C30.3261 10.0344 30 9.25 30 8.33333C30 7.38889 30.3261 6.59722 30.9783 5.95833C31.6317 5.31944 32.4167 5 33.3333 5C34.2778 5 35.0694 5.31944 35.7083 5.95833C36.3472 6.59722 36.6667 7.38889 36.6667 8.33333C36.6667 9.25 36.3472 10.0344 35.7083 10.6867C35.0694 11.34 34.2778 11.6667 33.3333 11.6667ZM20 10C18.6111 10 17.4306 9.51389 16.4583 8.54167C15.4861 7.56944 15 6.38889 15 5C15 3.58333 15.4861 2.39556 16.4583 1.43667C17.4306 0.478889 18.6111 0 20 0C21.4167 0 22.6039 0.478889 23.5617 1.43667C24.5206 2.39556 25 3.58333 25 5C25 6.38889 24.5206 7.56944 23.5617 8.54167C22.6039 9.51389 21.4167 10 20 10ZM20 3.33333C19.5278 3.33333 19.1322 3.49278 18.8133 3.81167C18.4933 4.13167 18.3333 4.52778 18.3333 5C18.3333 5.47222 18.4933 5.86778 18.8133 6.18667C19.1322 6.50667 19.5278 6.66667 20 6.66667C20.4722 6.66667 20.8683 6.50667 21.1883 6.18667C21.5072 5.86778 21.6667 5.47222 21.6667 5C21.6667 4.52778 21.5072 4.13167 21.1883 3.81167C20.8683 3.49278 20.4722 3.33333 20 3.33333Z" fill="#9E2140"/>
</svg>
