<svg width="40" height="42" viewBox="0 0 40 42" fill="none" xmlns="http://www.w3.org/2000/svg">
<path d="M16.3683 41.4604H4.09207C2.96675 41.4604 2.00307 41.06 1.20102 40.2593C0.400341 39.4573 0 38.4936 0 37.3683V8.72379C0 7.59847 0.400341 6.63478 1.20102 5.83274C2.00307 5.03205 2.96675 4.63171 4.09207 4.63171H12.6343C13.0094 3.43819 13.7425 2.45746 14.8338 1.68951C15.925 0.922933 17.1185 0.539642 18.4143 0.539642C19.7783 0.539642 20.9978 0.922933 22.0726 1.68951C23.1461 2.45746 23.8704 3.43819 24.2455 4.63171H32.7366C33.8619 4.63171 34.8256 5.03205 35.6276 5.83274C36.4283 6.63478 36.8286 7.59847 36.8286 8.72379V18.954H32.7366V8.72379H28.6445V14.8619H8.18414V8.72379H4.09207V37.3683H16.3683V41.4604ZM25.5754 39.2609L16.8798 30.5652L19.7442 27.7008L25.5754 33.532L37.1356 21.9719L40 24.8363L25.5754 39.2609ZM18.4143 8.72379C18.994 8.72379 19.4803 8.52737 19.8731 8.13453C20.2646 7.74305 20.4604 7.25746 20.4604 6.67775C20.4604 6.09804 20.2646 5.61177 19.8731 5.21893C19.4803 4.82745 18.994 4.63171 18.4143 4.63171C17.8346 4.63171 17.349 4.82745 16.9575 5.21893C16.5647 5.61177 16.3683 6.09804 16.3683 6.67775C16.3683 7.25746 16.5647 7.74305 16.9575 8.13453C17.349 8.52737 17.8346 8.72379 18.4143 8.72379Z" fill="#9E2140"/>
</svg>
