<svg width="41" height="30" viewBox="0 0 41 30" fill="none" xmlns="http://www.w3.org/2000/svg">
<path d="M9.59091 29.5455C8.07576 29.5455 6.78788 29.0152 5.72727 27.9545C4.66667 26.8939 4.13636 25.6061 4.13636 24.0909H0.5V4.09091C0.5 3.09091 0.856364 2.23515 1.56909 1.52363C2.28061 0.810907 3.13636 0.454544 4.13636 0.454544H29.5909V7.72727H35.0455L40.5 15V24.0909H36.8636C36.8636 25.6061 36.3333 26.8939 35.2727 27.9545C34.2121 29.0152 32.9242 29.5455 31.4091 29.5455C29.8939 29.5455 28.6061 29.0152 27.5455 27.9545C26.4848 26.8939 25.9545 25.6061 25.9545 24.0909H15.0455C15.0455 25.6061 14.5152 26.8939 13.4545 27.9545C12.3939 29.0152 11.1061 29.5455 9.59091 29.5455ZM9.59091 25.9091C10.1061 25.9091 10.5382 25.7345 10.8873 25.3855C11.2352 25.0376 11.4091 24.6061 11.4091 24.0909C11.4091 23.5758 11.2352 23.1442 10.8873 22.7964C10.5382 22.4473 10.1061 22.2727 9.59091 22.2727C9.07576 22.2727 8.64364 22.4473 8.29455 22.7964C7.94667 23.1442 7.77273 23.5758 7.77273 24.0909C7.77273 24.6061 7.94667 25.0376 8.29455 25.3855C8.64364 25.7345 9.07576 25.9091 9.59091 25.9091ZM4.13636 20.4545H5.59091C6.10606 19.9091 6.69697 19.4697 7.36364 19.1364C8.0303 18.803 8.77273 18.6364 9.59091 18.6364C10.4091 18.6364 11.1515 18.803 11.8182 19.1364C12.4848 19.4697 13.0758 19.9091 13.5909 20.4545H25.9545V4.09091H4.13636V20.4545ZM31.4091 25.9091C31.9242 25.9091 32.3558 25.7345 32.7036 25.3855C33.0527 25.0376 33.2273 24.6061 33.2273 24.0909C33.2273 23.5758 33.0527 23.1442 32.7036 22.7964C32.3558 22.4473 31.9242 22.2727 31.4091 22.2727C30.8939 22.2727 30.4624 22.4473 30.1145 22.7964C29.7655 23.1442 29.5909 23.5758 29.5909 24.0909C29.5909 24.6061 29.7655 25.0376 30.1145 25.3855C30.4624 25.7345 30.8939 25.9091 31.4091 25.9091ZM29.5909 16.8182H37.3182L33.2273 11.3636H29.5909V16.8182Z" fill="#9E2140"/>
</svg>
