<svg width="34" height="34" viewBox="0 0 34 34" fill="none" xmlns="http://www.w3.org/2000/svg">
<path d="M10.3486 33.6667C9.43197 33.6667 8.64752 33.3406 7.9953 32.6883C7.34197 32.035 7.0153 31.25 7.0153 30.3333C7.0153 29.4167 7.34197 28.6317 7.9953 27.9783C8.64752 27.3261 9.43197 27 10.3486 27C11.2653 27 12.0497 27.3261 12.702 27.9783C13.3553 28.6317 13.682 29.4167 13.682 30.3333C13.682 31.25 13.3553 32.035 12.702 32.6883C12.0497 33.3406 11.2653 33.6667 10.3486 33.6667ZM27.0153 33.6667C26.0986 33.6667 25.3142 33.3406 24.662 32.6883C24.0086 32.035 23.682 31.25 23.682 30.3333C23.682 29.4167 24.0086 28.6317 24.662 27.9783C25.3142 27.3261 26.0986 27 27.0153 27C27.932 27 28.717 27.3261 29.3703 27.9783C30.0225 28.6317 30.3486 29.4167 30.3486 30.3333C30.3486 31.25 30.0225 32.035 29.3703 32.6883C28.717 33.3406 27.932 33.6667 27.0153 33.6667ZM8.93197 7L12.932 15.3333H24.5986L29.182 7H8.93197ZM7.34863 3.66667H31.932C32.5709 3.66667 33.057 3.95111 33.3903 4.52C33.7236 5.09 33.7375 5.66667 33.432 6.25L27.5153 16.9167C27.2097 17.4722 26.7997 17.9028 26.2853 18.2083C25.772 18.5139 25.2097 18.6667 24.5986 18.6667H12.182L10.3486 22H30.3486V25.3333H10.3486C9.09863 25.3333 8.15419 24.7844 7.5153 23.6867C6.87641 22.59 6.84863 21.5 7.43197 20.4167L9.68197 16.3333L3.68197 3.66667H0.348633V0.333336H5.7653L7.34863 3.66667Z" fill="#9E2140"/>
</svg>
