<svg width="143" height="93" viewBox="0 0 143 93" fill="none" xmlns="http://www.w3.org/2000/svg">
<path d="M120.304 50.7406L91.4846 92.5126C90.8042 93.4874 89.2976 92.8538 89.492 91.7327L98.8717 31.9749L120.304 50.7406Z" fill="#C4212C"/>
<path d="M120.887 76.8664L109.855 82.7642C109.272 83.0566 108.689 82.423 109.029 81.8868L115.493 71.7485C115.93 71.0661 116.853 70.9686 117.437 71.456L121.179 74.7705C121.811 75.3554 121.665 76.4277 120.887 76.8664Z" fill="#9E1B24"/>
<path d="M142.611 18.4733L120.304 50.7893L98.8717 32.0236L64.6091 1.94971C63.7829 1.21858 64.4633 -0.194946 65.5325 0.048765L141.105 14.7689C142.757 15.0613 143.583 17.0598 142.611 18.4733Z" fill="#78141B"/>
<path d="M22.1333 39.1887C23.2997 40.5535 23.8829 42.4544 23.8829 44.9403C23.8829 45.6714 23.8343 46.5 23.6885 47.3286L21.0641 68.7264C21.0641 68.8727 21.0155 69.0189 20.8697 69.1651C20.7239 69.3113 20.5781 69.3601 20.3837 69.3601H15.864C15.6696 69.3601 15.5238 69.3113 15.378 69.1651C15.2808 69.0189 15.2322 68.8727 15.2808 68.7264L17.808 47.8161C17.8566 47.5236 17.8566 47.0849 17.8566 46.5C17.8566 45.184 17.565 44.1604 16.9332 43.4293C16.35 42.6981 15.4752 42.3569 14.3574 42.3569C12.9966 42.3569 11.8302 42.8444 10.9554 43.868C10.0321 44.8915 9.49746 46.3051 9.25447 48.0598L6.7759 68.7264C6.7759 68.8727 6.7273 69.0189 6.5815 69.1651C6.4357 69.3113 6.2899 69.3601 6.09551 69.3601H1.52716C1.13837 69.3601 0.94397 69.1651 0.94397 68.7264L6.1927 26.3208C6.1927 26.1746 6.2413 26.0283 6.3871 25.8821C6.5329 25.7359 6.6787 25.6871 6.8731 25.6871H11.3928C11.5872 25.6871 11.733 25.7359 11.8788 25.8821C11.976 26.0283 12.0246 26.1746 11.976 26.3208L10.2751 39.8711C10.2751 39.9686 10.3237 40.0173 10.4209 40.0173C10.5181 40.0173 10.5666 40.0173 10.6638 39.9198C12.3162 38.0676 14.4546 37.1903 17.079 37.1903C19.3145 37.1903 20.9669 37.8239 22.1333 39.1887Z" fill="#231F20"/>
<path d="M45.4124 37.6289H50.0293C50.4667 37.6289 50.6125 37.8239 50.5153 38.2626L46.7732 68.7264C46.7732 68.8727 46.7246 69.0189 46.5788 69.1651C46.433 69.3113 46.2872 69.3601 46.1414 69.3601H41.5244C41.1356 69.3601 40.9412 69.1651 40.9412 68.7264L41.1842 66.923C41.1842 66.7767 41.1356 66.728 41.087 66.728C41.0384 66.728 40.9898 66.7767 40.9412 66.8742C39.4833 68.8239 37.3935 69.7988 34.7205 69.7988C32.5821 69.7988 30.8326 69.1651 29.569 67.9465C28.3054 66.728 27.625 64.8758 27.625 62.3412C27.625 61.9513 27.6736 61.3664 27.7708 60.5377L30.4924 38.2138C30.541 38.0676 30.6382 37.9214 30.7354 37.7752C30.8812 37.6289 31.027 37.5802 31.1728 37.5802H35.7897C36.1785 37.5802 36.3729 37.7752 36.3729 38.2138L33.7485 59.2217C33.6999 59.5629 33.6999 60.0016 33.6999 60.5377C33.6999 63.2186 34.8663 64.5833 37.2477 64.5833C38.5599 64.5833 39.6776 64.0959 40.5524 63.0723C41.4272 62.0488 42.0104 60.6352 42.2048 58.8805L44.6834 38.2138C44.7806 37.8239 45.0236 37.6289 45.4124 37.6289Z" fill="#231F20"/>
<path d="M74.2804 39.2374C75.544 40.651 76.1758 42.5519 76.1758 45.0865C76.1758 45.4764 76.1272 46.1101 76.03 47.0362L74.4262 60.0016C74.086 62.9749 73.0654 65.3632 71.3644 67.1667C69.6635 68.9702 67.4765 69.8475 64.8521 69.8475C63.8315 69.8475 62.8109 69.6525 61.7904 69.2139C60.8184 68.7752 59.9922 68.0928 59.3604 67.1667C59.2146 67.0205 59.1174 67.0205 59.0688 67.3129L58.8744 68.7264C58.8744 68.8727 58.8258 69.0189 58.68 69.1651C58.5342 69.3113 58.3884 69.3601 58.194 69.3601H53.6743C53.2855 69.3601 53.0911 69.1651 53.0911 68.7264L58.3398 26.3208C58.3398 26.1746 58.3884 26.0283 58.5342 25.8821C58.68 25.7359 58.8258 25.6871 59.0202 25.6871H63.5399C63.7343 25.6871 63.8801 25.7359 64.0259 25.8821C64.1231 26.0283 64.1717 26.1746 64.1231 26.3208L62.4221 39.7249C62.4221 39.8224 62.4707 39.8711 62.5679 39.8711C62.6651 39.8711 62.7623 39.8224 62.8595 39.7249C63.7343 38.7988 64.7063 38.1651 65.7755 37.7752C66.8447 37.3852 67.8653 37.1903 68.8373 37.1903C71.2186 37.1903 73.0168 37.8727 74.2804 39.2374ZM70.2952 46.5488C70.2952 45.2815 69.9551 44.2091 69.2747 43.478C68.5943 42.6981 67.6709 42.3082 66.5045 42.3082C65.2409 42.3082 64.1231 42.7956 63.2483 43.7217C62.3735 44.6966 61.7904 45.9151 61.596 47.4261L60.0894 59.6604C60.0408 59.8554 60.0408 60.1966 60.0408 60.5865C60.0408 61.8538 60.381 62.8286 61.0128 63.5598C61.6932 64.2909 62.5679 64.6808 63.7343 64.6808C64.9979 64.6808 66.1157 64.1934 67.0391 63.2673C67.9625 62.3412 68.4971 61.1227 68.7401 59.6117L70.2467 47.3774C70.2467 47.1824 70.2952 46.89 70.2952 46.5488Z" fill="#231F20"/>
<path d="M23.0081 24.0299H23.8342C23.9314 24.0299 23.98 24.0786 23.98 24.2249L23.0081 32.6572C23.0081 32.7547 22.9109 32.8522 22.8137 32.8522H21.9875C21.9389 32.8522 21.8903 32.8522 21.8417 32.8035C21.7931 32.7547 21.7931 32.706 21.7931 32.706L21.8417 32.2186C21.8417 32.2186 21.8417 32.1698 21.7931 32.1698H21.7445C21.5015 32.4623 21.2585 32.6572 20.9669 32.8035C20.6753 32.9497 20.3351 32.9984 19.9949 32.9984C19.3631 32.9984 18.9257 32.8035 18.5369 32.3648C18.1967 31.9261 18.0023 31.3899 18.0023 30.7076C18.0023 30.5613 18.0023 30.4638 18.0023 30.3664C18.0509 29.9277 18.0995 29.294 18.2453 28.4654C18.3425 27.7343 18.3911 27.1006 18.4883 26.6132C18.5855 25.8333 18.8771 25.1997 19.3631 24.7123C19.8491 24.2249 20.3837 23.9811 21.0641 23.9811C21.7931 23.9811 22.3277 24.2736 22.6193 24.8098C22.6193 24.8098 22.6679 24.8585 22.6679 24.8098L22.7165 24.761L22.7651 24.2736C22.8623 24.1274 22.9109 24.0299 23.0081 24.0299ZM21.5501 31.3899C21.8417 31.0488 22.0361 30.6588 22.0847 30.1226L22.5221 26.7107C22.5221 26.662 22.5221 26.5645 22.5221 26.4182C22.5221 25.9796 22.4249 25.6384 22.1819 25.3459C21.9389 25.1022 21.6959 24.956 21.3071 24.956C20.8697 24.956 20.4809 25.1022 20.1893 25.4434C19.8977 25.7846 19.7033 26.1745 19.6547 26.7107C19.6061 26.9544 19.5575 27.5393 19.4603 28.4167L19.2659 30.1226C19.2659 30.2201 19.2659 30.3176 19.2659 30.4638C19.2659 30.9025 19.3631 31.2437 19.6061 31.4874C19.8491 31.7311 20.1407 31.8774 20.5295 31.8774C20.9183 31.8774 21.2585 31.7311 21.5501 31.3899Z" fill="#414042"/>
<path d="M28.111 22.0802C27.9166 22.3726 27.7708 22.8113 27.6736 23.445L27.625 23.9811V24.0299L27.6736 24.0786H28.9858C29.083 24.0786 29.1316 24.1274 29.1316 24.2736L29.083 24.8585C29.083 24.956 28.9858 25.0535 28.8886 25.0535H27.625H27.5764L27.5278 25.1022L26.5558 32.6572C26.5558 32.706 26.5558 32.7547 26.5072 32.7547C26.4586 32.8035 26.41 32.8035 26.3614 32.8035H25.5352C25.438 32.8035 25.3894 32.7547 25.3894 32.6085L26.3128 25.0047V24.956L26.2642 24.9072H25.5838C25.4866 24.9072 25.438 24.8585 25.438 24.7123L25.4866 24.1274C25.4866 24.0786 25.4866 24.0299 25.5352 24.0299C25.5838 23.9811 25.6324 23.9811 25.681 23.9811H26.3614H26.41L26.4586 23.9324L26.5072 23.3962C26.653 22.3726 26.896 21.6415 27.3334 21.2028C27.7222 20.7642 28.354 20.5204 29.2288 20.5204H29.4718C29.5204 20.5204 29.569 20.5204 29.6176 20.5692C29.6662 20.6179 29.6662 20.6667 29.6662 20.6667L29.4718 21.4465C29.4718 21.544 29.3746 21.6415 29.2774 21.6415H29.083C28.6456 21.6415 28.3054 21.7877 28.111 22.0802Z" fill="#414042"/>
<path d="M30.3465 32.3648C29.9577 31.9748 29.7147 31.4387 29.7147 30.7563C29.7147 30.5613 29.7147 30.4151 29.7147 30.3176L30.1521 26.5644C30.2493 25.7846 30.5409 25.1509 31.1241 24.6635C31.6587 24.1761 32.3391 23.9324 33.1167 23.9324C33.8457 23.9324 34.4289 24.1273 34.8663 24.5173C35.3037 24.9072 35.498 25.4434 35.498 26.0283C35.498 26.1745 35.498 26.272 35.498 26.3207L35.4495 26.5157C35.4495 26.5645 35.4495 26.6132 35.4009 26.6132C35.3523 26.6619 35.3037 26.6619 35.3037 26.6619L34.4289 26.7107C34.3317 26.7107 34.2831 26.6619 34.2831 26.5644V26.4182C34.2831 26.3695 34.2831 26.3207 34.2831 26.2233C34.2831 25.8821 34.1859 25.5896 33.9429 25.3459C33.6999 25.1022 33.4083 25.0047 33.0195 25.0047C32.5821 25.0047 32.2419 25.1509 31.9503 25.4434C31.6587 25.7358 31.4643 26.1745 31.4157 26.6619L30.9297 30.2201C30.9297 30.2689 30.9297 30.3663 30.9297 30.5126C30.9297 30.9512 31.0269 31.2437 31.2699 31.5361C31.5129 31.7799 31.8045 31.9261 32.1447 31.9261C32.5821 31.9261 32.9223 31.7799 33.2139 31.4874C33.5055 31.195 33.6999 30.8538 33.7485 30.5126V30.4151C33.7485 30.3176 33.8457 30.2201 33.9429 30.2201H34.8177C34.8663 30.2201 34.9149 30.2201 34.9149 30.2689C34.9635 30.3176 34.9635 30.3663 34.9635 30.3663V30.5613C34.8663 31.2437 34.5747 31.8286 33.9915 32.2673C33.4569 32.706 32.7765 32.9497 31.9989 32.9497C31.3185 32.9497 30.7839 32.7547 30.3465 32.3648Z" fill="#414042"/>
<path d="M39.4347 22.0802C39.2403 22.3726 39.0945 22.8113 38.9973 23.445L38.9487 23.9811V24.0299L38.9973 24.0786H40.3095C40.4067 24.0786 40.4553 24.1274 40.4553 24.2736L40.4067 24.8585C40.4067 24.956 40.3095 25.0535 40.2123 25.0535H38.9487H38.9001L38.8515 25.1022L37.8795 32.6572C37.8795 32.706 37.8795 32.7547 37.8309 32.7547C37.7823 32.8035 37.7337 32.8035 37.6851 32.8035H36.8589C36.7617 32.8035 36.7131 32.7547 36.7131 32.6085L37.6365 25.0047V24.956L37.5879 24.9072H36.9075C36.8103 24.9072 36.7617 24.8585 36.7617 24.7123L36.8103 24.1274C36.8103 24.0786 36.8103 24.0299 36.8589 24.0299C36.9075 23.9811 36.9561 23.9811 37.0047 23.9811H37.6851H37.7337L37.7823 23.9324L37.8309 23.3962C37.9767 22.3726 38.2197 21.6415 38.6571 21.2028C39.0459 20.7642 39.6777 20.5204 40.5525 20.5204H40.7955C40.8441 20.5204 40.8927 20.5204 40.9413 20.5692C40.9899 20.6179 40.9899 20.6667 40.9899 20.6667L40.7955 21.4465C40.7955 21.544 40.6983 21.6415 40.6011 21.6415H40.4067C39.9693 21.6415 39.6291 21.7877 39.4347 22.0802Z" fill="#414042"/>
<path d="M44.8777 24.9073C44.8291 24.956 44.7805 24.956 44.7319 24.956H43.4683C43.4197 24.956 43.4197 24.956 43.3711 25.0047L42.7394 30.3176C42.7394 30.5126 42.6908 30.6588 42.6908 30.7563C42.6908 31.1463 42.788 31.39 42.9338 31.5362C43.0796 31.6824 43.3225 31.7312 43.6627 31.7312H43.8571C43.9057 31.7312 43.9543 31.7312 43.9543 31.7799C43.9543 31.8286 44.0029 31.8774 44.0029 31.8774L43.8571 32.6573C43.8571 32.7547 43.7599 32.8522 43.6627 32.8522H43.2253C42.6422 32.8522 42.2048 32.7547 41.8646 32.511C41.573 32.2673 41.4272 31.8774 41.4272 31.2437C41.4272 31.1463 41.4272 31 41.4758 30.7076L42.1562 25.0535V25.0047L42.1076 24.956H41.4272C41.33 24.956 41.2814 24.9073 41.2814 24.761L41.33 24.1761C41.33 24.1274 41.33 24.0787 41.3786 24.0787C41.4272 24.0299 41.4758 24.0299 41.5244 24.0299H42.2534H42.302L42.3506 23.9812L42.5936 22.0315C42.5936 21.9827 42.5936 21.934 42.6422 21.934C42.6908 21.8853 42.7394 21.8853 42.788 21.8853H43.6141C43.7113 21.8853 43.7599 21.934 43.7599 22.0802L43.5169 24.0299C43.5169 24.0786 43.5169 24.0787 43.5655 24.0787H44.8291C44.9263 24.0787 44.9749 24.1274 44.9749 24.2736L44.9263 24.8585C44.9263 24.8585 44.8777 24.8585 44.8777 24.9073Z" fill="#414042"/>
<path d="M50.5153 24.0299H51.3414C51.4386 24.0299 51.4872 24.0786 51.4872 24.2249L50.5153 32.6572C50.5153 32.7547 50.4181 32.8522 50.3209 32.8522H49.4947C49.4461 32.8522 49.3975 32.8522 49.3489 32.8035C49.3003 32.7547 49.3003 32.706 49.3003 32.706L49.3489 32.2186C49.3489 32.2186 49.3489 32.1698 49.3003 32.1698H49.2517C49.0087 32.4623 48.7657 32.6572 48.4741 32.8035C48.1825 32.9497 47.8423 32.9984 47.5021 32.9984C46.8703 32.9984 46.4329 32.8035 46.0441 32.3648C45.7039 31.9261 45.5095 31.3899 45.5095 30.7076C45.5095 30.5613 45.5095 30.4638 45.5095 30.3664C45.5581 29.9277 45.6067 29.294 45.7525 28.4654C45.8497 27.7343 45.8983 27.1006 45.9955 26.6132C46.0927 25.8333 46.3843 25.1997 46.8703 24.7123C47.3563 24.2249 47.8909 23.9811 48.5713 23.9811C49.3003 23.9811 49.8349 24.2736 50.1265 24.8098C50.1265 24.8098 50.1751 24.8585 50.1751 24.8098L50.2237 24.761L50.2723 24.2736C50.3695 24.1274 50.4181 24.0299 50.5153 24.0299ZM49.0573 31.3899C49.3489 31.0488 49.5433 30.6588 49.5919 30.1226L50.0293 26.7107C50.0293 26.662 50.0293 26.5645 50.0293 26.4182C50.0293 25.9796 49.9321 25.6384 49.6891 25.3459C49.4461 25.1022 49.2031 24.956 48.8143 24.956C48.3769 24.956 47.9881 25.1022 47.6965 25.4434C47.4049 25.7846 47.2105 26.1745 47.1619 26.7107C47.1133 26.9544 47.0647 27.5393 46.9675 28.4167L46.7731 30.1226C46.7731 30.2201 46.7731 30.3176 46.7731 30.4638C46.7731 30.9025 46.8703 31.2437 47.1133 31.4874C47.3563 31.7311 47.6479 31.8774 48.0367 31.8774C48.4255 31.8774 48.7657 31.7311 49.0573 31.3899Z" fill="#414042"/>
</svg>
