<svg width="43" height="42" viewBox="0 0 43 42" fill="none" xmlns="http://www.w3.org/2000/svg">
<path d="M19.4165 31.4166H23.5832V23.0833H31.9165V18.9166H23.5832V10.5833H19.4165V18.9166H11.0832V23.0833H19.4165V31.4166ZM21.4998 41.8333C18.6179 41.8333 15.9096 41.2861 13.3748 40.1916C10.8401 39.0986 8.63525 37.6145 6.76025 35.7395C4.88525 33.8645 3.40123 31.6597 2.30817 29.125C1.21373 26.5902 0.666504 23.8819 0.666504 21C0.666504 18.118 1.21373 15.4097 2.30817 12.875C3.40123 10.3402 4.88525 8.13538 6.76025 6.26038C8.63525 4.38538 10.8401 2.90065 13.3748 1.80621C15.9096 0.713154 18.6179 0.166626 21.4998 0.166626C24.3818 0.166626 27.0901 0.713154 29.6248 1.80621C32.1596 2.90065 34.3644 4.38538 36.2394 6.26038C38.1144 8.13538 39.5984 10.3402 40.6915 12.875C41.7859 15.4097 42.3332 18.118 42.3332 21C42.3332 23.8819 41.7859 26.5902 40.6915 29.125C39.5984 31.6597 38.1144 33.8645 36.2394 35.7395C34.3644 37.6145 32.1596 39.0986 29.6248 40.1916C27.0901 41.2861 24.3818 41.8333 21.4998 41.8333ZM21.4998 37.6666C26.1526 37.6666 30.0936 36.052 33.3228 32.8229C36.5519 29.5937 38.1665 25.6527 38.1665 21C38.1665 16.3472 36.5519 12.4062 33.3228 9.17704C30.0936 5.94788 26.1526 4.33329 21.4998 4.33329C16.8471 4.33329 12.9061 5.94788 9.67692 9.17704C6.44775 12.4062 4.83317 16.3472 4.83317 21C4.83317 25.6527 6.44775 29.5937 9.67692 32.8229C12.9061 36.052 16.8471 37.6666 21.4998 37.6666Z" fill="#9F9F9F"/>
</svg>
