<svg width="18" height="18" viewBox="0 0 18 18" fill="none" xmlns="http://www.w3.org/2000/svg">
<path d="M8.99984 17.3333C7.84706 17.3333 6.76373 17.1144 5.74984 16.6767C4.73595 16.2394 3.854 15.6458 3.104 14.8958C2.354 14.1458 1.76039 13.2639 1.32317 12.25C0.885393 11.2361 0.666504 10.1528 0.666504 8.99999C0.666504 7.84721 0.885393 6.76388 1.32317 5.74999C1.76039 4.7361 2.354 3.85416 3.104 3.10416C3.854 2.35416 4.73595 1.76027 5.74984 1.32249C6.76373 0.885268 7.84706 0.666656 8.99984 0.666656C10.1526 0.666656 11.2359 0.885268 12.2498 1.32249C13.2637 1.76027 14.1457 2.35416 14.8957 3.10416C15.6457 3.85416 16.2393 4.7361 16.6765 5.74999C17.1143 6.76388 17.3332 7.84721 17.3332 8.99999C17.3332 10.1528 17.1143 11.2361 16.6765 12.25C16.2393 13.2639 15.6457 14.1458 14.8957 14.8958C14.1457 15.6458 13.2637 16.2394 12.2498 16.6767C11.2359 17.1144 10.1526 17.3333 8.99984 17.3333Z" fill="#F4A51F"/>
</svg>
