<svg width="20" height="20" viewBox="0 0 20 20" fill="none" xmlns="http://www.w3.org/2000/svg">
<path d="M17 6C17.2833 6 17.5207 5.90433 17.712 5.713C17.904 5.521 18 5.28333 18 5C18 4.71667 17.904 4.479 17.712 4.287C17.5207 4.09567 17.2833 4 17 4C16.7167 4 16.4793 4.09567 16.288 4.287C16.096 4.479 16 4.71667 16 5C16 5.28333 16.096 5.521 16.288 5.713C16.4793 5.90433 16.7167 6 17 6ZM17 8C16.15 8 15.4377 7.71233 14.863 7.137C14.2877 6.56233 14 5.85 14 5C14 4.16667 14.2877 3.45833 14.863 2.875C15.4377 2.29167 16.15 2 17 2C17.8333 2 18.5417 2.29167 19.125 2.875C19.7083 3.45833 20 4.16667 20 5C20 5.85 19.7083 6.56233 19.125 7.137C18.5417 7.71233 17.8333 8 17 8ZM10 5C10.4167 5 10.7707 4.85833 11.062 4.575C11.354 4.29167 11.5 3.93333 11.5 3.5C11.5 3.08333 11.354 2.72933 11.062 2.438C10.7707 2.146 10.4167 2 10 2C9.56667 2 9.20833 2.146 8.925 2.438C8.64167 2.72933 8.5 3.08333 8.5 3.5C8.5 3.93333 8.64167 4.29167 8.925 4.575C9.20833 4.85833 9.56667 5 10 5ZM10 7C9.01667 7 8.18733 6.66233 7.512 5.987C6.83733 5.31233 6.5 4.48333 6.5 3.5C6.5 2.53333 6.83733 1.70833 7.512 1.025C8.18733 0.341667 9.01667 0 10 0C10.9667 0 11.7917 0.341667 12.475 1.025C13.1583 1.70833 13.5 2.53333 13.5 3.5C13.5 4.48333 13.1583 5.31233 12.475 5.987C11.7917 6.66233 10.9667 7 10 7ZM6 11.375C6 11.875 6.26667 12.4583 6.8 13.125C7.33333 13.7917 8.4 14.85 10 16.3C11.5667 14.8833 12.625 13.8417 13.175 13.175C13.725 12.5083 14 11.9083 14 11.375C14 10.9917 13.875 10.6667 13.625 10.4C13.375 10.1333 13.0667 10 12.7 10C12.4667 10 12.246 10.05 12.038 10.15C11.8293 10.25 11.6583 10.3917 11.525 10.575L10.325 12H9.65L8.45 10.575C8.31667 10.3917 8.146 10.25 7.938 10.15C7.72933 10.05 7.51667 10 7.3 10C6.91667 10 6.60433 10.1333 6.363 10.4C6.121 10.6667 6 10.9917 6 11.375ZM4 11.375C4 10.4917 4.3 9.70833 4.9 9.025C5.5 8.34167 6.3 8 7.3 8C7.81667 8 8.31267 8.11667 8.788 8.35C9.26267 8.58333 9.66667 8.9 10 9.3C10.3333 8.9 10.7333 8.58333 11.2 8.35C11.6667 8.11667 12.1667 8 12.7 8C13.7 8 14.5 8.34567 15.1 9.037C15.7 9.729 16 10.5083 16 11.375C16 12.2583 15.6793 13.129 15.038 13.987C14.396 14.8457 13.0833 16.1833 11.1 18L10 19L8.9 18C6.88333 16.1667 5.56267 14.825 4.938 13.975C4.31267 13.125 4 12.2583 4 11.375ZM3 6C3.28333 6 3.521 5.90433 3.713 5.713C3.90433 5.521 4 5.28333 4 5C4 4.71667 3.90433 4.479 3.713 4.287C3.521 4.09567 3.28333 4 3 4C2.71667 4 2.479 4.09567 2.287 4.287C2.09567 4.479 2 4.71667 2 5C2 5.28333 2.09567 5.521 2.287 5.713C2.479 5.90433 2.71667 6 3 6ZM10.075 20V18H18V11H15.05V9H18C18.55 9 19.021 9.19567 19.413 9.587C19.8043 9.979 20 10.45 20 11V20H10.075ZM2 18H10.075V20H0V11C0 10.45 0.191667 9.979 0.575 9.587C0.958333 9.19567 1.43333 9 2 9H4.95V11H2V18ZM3 8C2.15 8 1.43733 7.71233 0.862 7.137C0.287333 6.56233 0 5.85 0 5C0 4.16667 0.287333 3.45833 0.862 2.875C1.43733 2.29167 2.15 2 3 2C3.83333 2 4.54167 2.29167 5.125 2.875C5.70833 3.45833 6 4.16667 6 5C6 5.85 5.70833 6.56233 5.125 7.137C4.54167 7.71233 3.83333 8 3 8Z" fill="white"/>
</svg>
