<svg xmlns="http://www.w3.org/2000/svg" xmlns:svgjs="http://svgjs.com/svgjs" xmlns:xlink="http://www.w3.org/1999/xlink" width="288" height="288"><svg xmlns="http://www.w3.org/2000/svg" width="288" height="288" fill="none" viewBox="0 0 21 11"><path fill="#fff" d="M9.0625 5.5C8.67361 5.5 8.35417 5.35417 8.10417 5.0625C7.85417 4.77083 7.76389 4.43056 7.83333 4.04167L8.08333 2.54167C8.19444 1.94444 8.47583 1.455 8.9275 1.07333C9.37861 0.691111 9.90278 0.5 10.5 0.5C11.1111 0.5 11.6425 0.691111 12.0942 1.07333C12.5453 1.455 12.8264 1.94444 12.9375 2.54167L13.1875 4.04167C13.2569 4.43056 13.1667 4.77083 12.9167 5.0625C12.6667 5.35417 12.3472 5.5 11.9583 5.5H9.0625ZM9.5625 3.83333H11.4583L11.2917 2.8125C11.2639 2.61806 11.1736 2.46167 11.0208 2.34333C10.8681 2.22556 10.6944 2.16667 10.5 2.16667C10.3056 2.16667 10.1353 2.22556 9.98917 2.34333C9.84361 2.46167 9.75694 2.61806 9.72917 2.8125L9.5625 3.83333ZM3.08333 6.3125C2.76389 6.32639 2.48972 6.26389 2.26083 6.125C2.03139 5.98611 1.88194 5.77083 1.8125 5.47917C1.78472 5.35417 1.77778 5.22917 1.79167 5.10417C1.80556 4.97917 1.84028 4.86111 1.89583 4.75C1.89583 4.76389 1.88889 4.73611 1.875 4.66667C1.81944 4.59722 1.77444 4.52083 1.74 4.4375C1.705 4.35417 1.68056 4.26389 1.66667 4.16667C1.63889 4 1.65972 3.84028 1.72917 3.6875C1.79861 3.53472 1.88889 3.40278 2 3.29167L2.04167 3.25C2.06944 2.98611 2.17722 2.76389 2.365 2.58333C2.55222 2.40278 2.78472 2.3125 3.0625 2.3125C3.10417 2.3125 3.23611 2.34028 3.45833 2.39583L3.52083 2.375C3.59028 2.30556 3.68056 2.25333 3.79167 2.21833C3.90278 2.18389 4.02083 2.16667 4.14583 2.16667C4.29861 2.16667 4.43417 2.19083 4.5525 2.23917C4.67028 2.28806 4.76389 2.36111 4.83333 2.45833C4.84722 2.45833 4.85778 2.46194 4.865 2.46917C4.87167 2.47583 4.88194 2.47917 4.89583 2.47917C5.09028 2.49306 5.26056 2.55194 5.40667 2.65583C5.55222 2.76028 5.65972 2.90278 5.72917 3.08333C5.75694 3.18056 5.76722 3.27444 5.76 3.365C5.75333 3.455 5.73611 3.54167 5.70833 3.625C5.70833 3.63889 5.71528 3.66667 5.72917 3.70833C5.82639 3.80556 5.90278 3.91306 5.95833 4.03083C6.01389 4.14917 6.04167 4.27083 6.04167 4.39583C6.04167 4.45139 6 4.59722 5.91667 4.83333C5.90278 4.86111 5.90278 4.88889 5.91667 4.91667L5.95833 5.25C5.95833 5.54167 5.83694 5.79167 5.59417 6C5.35083 6.20833 5.05556 6.3125 4.70833 6.3125H3.08333ZM17.1667 6.33333C16.7083 6.33333 16.3158 6.17 15.9892 5.84333C15.6631 5.51722 15.5 5.125 15.5 4.66667C15.5 4.5 15.5242 4.34389 15.5725 4.19833C15.6214 4.05222 15.6875 3.90972 15.7708 3.77083L15.1875 3.25C15.0486 3.13889 15.0244 3 15.115 2.83333C15.205 2.66667 15.3333 2.58333 15.5 2.58333H17.1667C17.625 2.58333 18.0175 2.74639 18.3442 3.0725C18.6703 3.39917 18.8333 3.79167 18.8333 4.25V4.66667C18.8333 5.125 18.6703 5.51722 18.3442 5.84333C18.0175 6.17 17.625 6.33333 17.1667 6.33333ZM0.5 10.5V9.1875C0.5 8.57639 0.809167 8.08667 1.4275 7.71833C2.04528 7.35055 2.84722 7.16667 3.83333 7.16667C4.01389 7.16667 4.1875 7.17 4.35417 7.17667C4.52083 7.18389 4.68056 7.20139 4.83333 7.22917C4.63889 7.50694 4.49306 7.80555 4.39583 8.125C4.29861 8.44444 4.25 8.78472 4.25 9.14583V10.5H0.5ZM5.5 10.5V9.14583C5.5 8.24306 5.96194 7.51389 6.88583 6.95833C7.80917 6.40278 9.01389 6.125 10.5 6.125C12 6.125 13.2083 6.40278 14.125 6.95833C15.0417 7.51389 15.5 8.24306 15.5 9.14583V10.5H5.5ZM17.1667 7.16667C18.1667 7.16667 18.9722 7.35055 19.5833 7.71833C20.1944 8.08667 20.5 8.57639 20.5 9.1875V10.5H16.75V9.14583C16.75 8.78472 16.7047 8.44444 16.6142 8.125C16.5242 7.80555 16.3889 7.50694 16.2083 7.22917C16.3611 7.20139 16.5175 7.18389 16.6775 7.17667C16.8369 7.17 17 7.16667 17.1667 7.16667ZM10.5 7.79167C9.70833 7.79167 9 7.89583 8.375 8.10417C7.75 8.3125 7.38194 8.55556 7.27083 8.83333H13.75C13.625 8.55556 13.2533 8.3125 12.635 8.10417C12.0172 7.89583 11.3056 7.79167 10.5 7.79167Z" class="color9E2140 svgShape"/></svg></svg>