<svg width="35" height="35" viewBox="0 0 35 35" fill="none" xmlns="http://www.w3.org/2000/svg">
<rect width="35" height="35" rx="17.5" fill="#9E2140" fill-opacity="0.1"/>
<mask id="mask0_817_556" style="mask-type:alpha" maskUnits="userSpaceOnUse" x="8" y="8" width="19" height="19">
<rect x="8.5" y="8.5" width="18" height="18" fill="#D9D9D9"/>
</mask>
<g mask="url(#mask0_817_556)">
<path d="M12.25 21.25V16H13.75V21.25H12.25ZM16.75 21.25V16H18.25V21.25H16.75ZM10 14.5V13L17.5 9.25L25 13V14.5H10ZM13.3562 13H21.6437L17.5 10.9375L13.3562 13ZM10 24.25V22.75H19.0375C19.0625 23.0125 19.0938 23.2655 19.1313 23.509C19.1688 23.753 19.225 24 19.3 24.25H10ZM21.25 18.4375V16H22.75V17.6875L21.25 18.4375ZM23.5 26.5C22.6375 26.2875 21.922 25.7905 21.3535 25.009C20.7845 24.228 20.5 23.3625 20.5 22.4125V20.5L23.5 19L26.5 20.5V22.4125C26.5 23.3625 26.2158 24.228 25.6473 25.009C25.0783 25.7905 24.3625 26.2875 23.5 26.5ZM22.9562 24.25L25.5625 21.6625L24.775 20.875L22.9562 22.6562L22.225 21.925L21.4375 22.7313L22.9562 24.25Z" fill="#9E2140"/>
</g>
</svg>
