<svg width="20" height="10" viewBox="0 0 20 10" fill="none" xmlns="http://www.w3.org/2000/svg">
<path d="M9 10H5C3.61667 10 2.43767 9.51233 1.463 8.537C0.487667 7.56233 0 6.38333 0 5C0 3.61667 0.487667 2.43733 1.463 1.462C2.43767 0.487333 3.61667 0 5 0H9V2H5C4.16667 2 3.45833 2.29167 2.875 2.875C2.29167 3.45833 2 4.16667 2 5C2 5.83333 2.29167 6.54167 2.875 7.125C3.45833 7.70833 4.16667 8 5 8H9V10ZM6 6V4H14V6H6ZM11 10V8H15C15.8333 8 16.5417 7.70833 17.125 7.125C17.7083 6.54167 18 5.83333 18 5C18 4.16667 17.7083 3.45833 17.125 2.875C16.5417 2.29167 15.8333 2 15 2H11V0H15C16.3833 0 17.5627 0.487333 18.538 1.462C19.5127 2.43733 20 3.61667 20 5C20 6.38333 19.5127 7.56233 18.538 8.537C17.5627 9.51233 16.3833 10 15 10H11Z" fill="#9E2140"/>
</svg>
