<svg width="18" height="19" viewBox="0 0 18 19" fill="none" xmlns="http://www.w3.org/2000/svg">
<path d="M6 18.5C4.33333 18.5 2.91667 17.9167 1.75 16.75C0.583333 15.5833 0 14.1667 0 12.5V6.5C0 4.83333 0.583333 3.41667 1.75 2.25C2.91667 1.08333 4.33333 0.5 6 0.5H12C13.6667 0.5 15.0833 1.08333 16.25 2.25C17.4167 3.41667 18 4.83333 18 6.5V12.5C18 14.1667 17.4167 15.5833 16.25 16.75C15.0833 17.9167 13.6667 18.5 12 18.5H6ZM8 13.5L14 7.5L12.6 6.1L8 10.7L5.8 8.5L4.4 9.9L8 13.5ZM6 16.5H12C13.1 16.5 14.0417 16.1083 14.825 15.325C15.6083 14.5417 16 13.6 16 12.5V6.5C16 5.4 15.6083 4.45833 14.825 3.675C14.0417 2.89167 13.1 2.5 12 2.5H6C4.9 2.5 3.95833 2.89167 3.175 3.675C2.39167 4.45833 2 5.4 2 6.5V12.5C2 13.6 2.39167 14.5417 3.175 15.325C3.95833 16.1083 4.9 16.5 6 16.5Z" fill="#1C1B1F"/>
</svg>
