<svg width="26" height="26" viewBox="0 0 26 26" fill="none" xmlns="http://www.w3.org/2000/svg">
<path d="M3.27778 25.5C2.51389 25.5 1.85972 25.2282 1.31528 24.6847C0.771759 24.1403 0.5 23.4861 0.5 22.7222V3.27778C0.5 2.51389 0.771759 1.85972 1.31528 1.31528C1.85972 0.771759 2.51389 0.5 3.27778 0.5H17.1667L25.5 8.83333V22.7222C25.5 23.4861 25.2282 24.1403 24.6847 24.6847C24.1403 25.2282 23.4861 25.5 22.7222 25.5H3.27778ZM6.05556 19.9444H19.9444V17.1667H6.05556V19.9444ZM6.05556 14.3889H19.9444V11.6111H6.05556V14.3889ZM6.05556 8.83333H15.7778V6.05556H6.05556V8.83333Z" fill="white"/>
</svg>
